<?xml version="1.0" encoding="UTF-8"?>
<svg version="1.1" xmlns="http://www.w3.org/2000/svg" width="500" height="231">
<path d="M0 0 C165 0 330 0 500 0 C500 76.23 500 152.46 500 231 C335 231 170 231 0 231 C0 154.77 0 78.54 0 0 Z " fill="#FEFEFE" transform="translate(0,0)"/>
<path d="M0 0 C12.21 0 24.42 0 37 0 C35.57350637 4.27948088 34.13691779 8.0519483 32.234375 12.09375 C31.40389648 13.86492188 31.40389648 13.86492188 30.55664062 15.671875 C30.26249268 16.29513672 29.96834473 16.91839844 29.6652832 17.56054688 C28.73408075 19.53373233 27.80697202 21.50879601 26.88085938 23.484375 C25.58169406 26.2546686 24.28088881 29.02418178 22.97851562 31.79296875 C20.11047923 37.89045788 17.2481531 43.99060195 14.3927002 50.09399414 C13.52906558 51.93794203 12.66259888 53.78053852 11.79589844 55.62304688 C8.01923529 63.68922557 4.51283163 71.80339286 1 80 C12.88 80 24.76 80 37 80 C34.93639128 86.19082616 32.82759031 91.83272292 30.0078125 97.64453125 C29.62510696 98.44475708 29.24240143 99.24498291 28.84809875 100.06945801 C27.61171762 102.65273149 26.36836006 105.23257946 25.125 107.8125 C23.40776056 111.39468827 21.69410912 114.97858891 19.98046875 118.5625 C19.555345 119.45036697 19.13022125 120.33823395 18.69221497 121.25300598 C14.31863049 130.39826121 10.05834624 139.59461659 5.83447266 148.80981445 C5.35155762 149.8587085 4.86864258 150.90760254 4.37109375 151.98828125 C3.95786865 152.89102783 3.54464355 153.79377441 3.11889648 154.72387695 C2 157 2 157 0 160 C-2.83727325 160.26667539 -5.45383045 160.34791234 -8.2890625 160.29296875 C-9.10748627 160.28872391 -9.92591003 160.28447906 -10.76913452 160.28010559 C-13.38808836 160.26328679 -16.00627802 160.22562974 -18.625 160.1875 C-20.3984264 160.17245726 -22.17186484 160.15876814 -23.9453125 160.14648438 C-28.2971703 160.11337292 -32.64845551 160.06156952 -37 160 C-35.55598043 155.33967348 -33.68358236 150.98442662 -31.578125 146.59375 C-31.24126678 145.8838945 -30.90440857 145.174039 -30.55734253 144.44267273 C-29.83367435 142.91854673 -29.10847971 141.39514473 -28.38189697 139.87240601 C-26.84965576 136.66089617 -25.32507501 133.44577169 -23.80020142 130.23075867 C-23.0194496 128.58468533 -22.23833972 126.93878179 -21.45687866 125.29304504 C-17.95381716 117.91322137 -14.48059675 110.51969747 -11.02575684 103.1171875 C-10.43098747 101.84301565 -9.83570141 100.56908486 -9.23986816 99.29541016 C-8.4113538 97.52430636 -7.58454925 95.75240302 -6.7578125 93.98046875 C-6.2952002 92.98942139 -5.83258789 91.99837402 -5.35595703 90.97729492 C-3.8518765 87.67476304 -2.42949699 84.33549298 -1 81 C-12.88 80.67 -24.76 80.34 -37 80 C-35.5899245 75.76977351 -34.18185922 72.04104738 -32.3046875 68.046875 C-31.76126709 66.88639648 -31.21784668 65.72591797 -30.65795898 64.53027344 C-30.06373785 63.27013582 -29.46941543 62.01004597 -28.875 60.75 C-28.25762768 59.43534633 -27.64052713 58.12056501 -27.02368164 56.80566406 C-25.71026701 54.0075499 -24.39471812 51.21045251 -23.07763672 48.4140625 C-21.30592662 44.65176239 -19.53918785 40.88715151 -17.77404785 37.12176514 C-16.34414081 34.07178583 -14.91288558 31.0224406 -13.48126221 27.9732666 C-12.7929676 26.50716407 -12.10493271 25.04093957 -11.41717529 23.57458496 C-10.44477075 21.50223961 -9.470658 19.43070543 -8.49609375 17.359375 C-7.94107178 16.17827148 -7.3860498 14.99716797 -6.81420898 13.78027344 C-4.59706967 9.1604127 -2.29167275 4.5833455 0 0 Z " fill="#26A0ED" transform="translate(124,34)"/>
<path d="M0 0 C24.52941176 0 24.52941176 0 30.6328125 5.4609375 C35.65858523 11.11852166 36.40320647 15.66519856 36.2421875 23.02734375 C35.77116185 28.80880369 33.95915904 32.37493068 29.625 36.3125 C25.42771901 39.81023416 21.37732551 41.26229847 15.91796875 41.1953125 C14.65762817 41.18781982 14.65762817 41.18781982 13.37182617 41.18017578 C12.32099854 41.16196777 11.2701709 41.14375977 10.1875 41.125 C6.825625 41.08375 3.46375 41.0425 0 41 C0 27.47 0 13.94 0 0 Z " fill="#261E40" transform="translate(178,52)"/>
<path d="M0 0 C10 0 10 0 12.51220703 2.11132812 C13.08825684 3.07490234 13.66430664 4.03847656 14.2578125 5.03125 C14.90234375 6.06894531 15.546875 7.10664062 16.2109375 8.17578125 C16.84257812 9.27277344 17.47421875 10.36976562 18.125 11.5 C18.7953125 12.59699219 19.465625 13.69398437 20.15625 14.82421875 C21.80325315 17.53000963 23.40603429 20.26262955 25 23 C25.33 15.41 25.66 7.82 26 0 C29.3 0 32.6 0 36 0 C36 13.53 36 27.06 36 41 C26 41 26 41 23.48779297 38.98046875 C22.91174316 38.05878906 22.33569336 37.13710937 21.7421875 36.1875 C21.09765625 35.19492188 20.453125 34.20234375 19.7890625 33.1796875 C19.15742188 32.13039062 18.52578125 31.08109375 17.875 30 C17.2046875 28.95070313 16.534375 27.90140625 15.84375 26.8203125 C14.19753412 24.23340183 12.59444294 21.61913826 11 19 C10.67 26.26 10.34 33.52 10 41 C6.7 41 3.4 41 0 41 C0 27.47 0 13.94 0 0 Z " fill="#261E40" transform="translate(359,52)"/>
<path d="M0 0 C3.3 -0.0825 6.6 -0.165 10 -0.25 C11.02351563 -0.28641602 12.04703125 -0.32283203 13.1015625 -0.36035156 C19.25191934 -0.4341368 23.89882894 0.42582422 29 4 C31.49560019 6.88553771 31.94698648 8.59103858 32.4375 12.375 C31.81249334 17.55362664 30.05955315 21.36137742 25.859375 24.703125 C25.24578125 25.13109375 24.6321875 25.5590625 24 26 C24.5775 26.99902344 25.155 27.99804688 25.75 29.02734375 C26.50011259 30.33066437 27.25010648 31.63405332 28 32.9375 C28.3815625 33.59685547 28.763125 34.25621094 29.15625 34.93554688 C32 39.88671875 32 39.88671875 32 41 C28.37 41 24.74 41 21 41 C20.45730469 40.00097656 19.91460937 39.00195312 19.35546875 37.97265625 C18.63329987 36.66900073 17.91061681 35.36562995 17.1875 34.0625 C16.65286133 33.0734668 16.65286133 33.0734668 16.10742188 32.06445312 C13.97324509 28.00958993 13.97324509 28.00958993 10 26 C10 30.95 10 35.9 10 41 C6.7 41 3.4 41 0 41 C0 27.47 0 13.94 0 0 Z " fill="#282042" transform="translate(310,133)"/>
<path d="M0 0 C4.74583853 2.16952619 7.68983648 5.0186905 10.61328125 9.3125 C10.61328125 10.3025 10.61328125 11.2925 10.61328125 12.3125 C8.86405985 12.39392927 7.11373583 12.45188541 5.36328125 12.5 C4.38875 12.53480469 3.41421875 12.56960937 2.41015625 12.60546875 C-0.81317576 12.26782922 -1.92604565 11.3224814 -4.38671875 9.3125 C-8.63321818 8.77203644 -10.64495067 8.82873821 -14.26171875 11.1875 C-17.17605912 14.10184037 -17.35540295 14.84276293 -17.63671875 19.0625 C-17.5925454 23.10436129 -16.57377408 25.86368198 -14.38671875 29.3125 C-10.69795848 31.15688013 -6.41341562 30.80038734 -2.38671875 30.3125 C0.18965596 28.42734777 1.20995553 27.11915143 2.61328125 24.3125 C-1.34671875 24.3125 -5.30671875 24.3125 -9.38671875 24.3125 C-9.38671875 22.0025 -9.38671875 19.6925 -9.38671875 17.3125 C-2.45671875 17.3125 4.47328125 17.3125 11.61328125 17.3125 C12.19489476 29.23557692 12.19489476 29.23557692 7.61328125 34.3125 C1.74763493 39.72694276 -3.55843524 40.82991509 -11.375 40.6953125 C-17.24401816 39.94931538 -20.83774661 36.98375941 -24.76171875 32.75 C-28.9871118 26.41191042 -29.27200853 20.87359737 -28.38671875 13.3125 C-26.11876798 7.34272876 -22.00987905 3.49113234 -16.59375 0.234375 C-11.54607098 -1.87403606 -5.19263405 -1.49575056 0 0 Z " fill="#251D3F" transform="translate(339.38671875,52.6875)"/>
<path d="M0 0 C2.83203125 0.03255208 5.6640625 0.06510417 8.49609375 0.09765625 C12.27380393 8.88045109 15.62190137 17.77271809 18.80859375 26.78515625 C19.26732142 28.07105515 19.72630461 29.35686292 20.18554688 30.64257812 C23.49609375 39.95691377 23.49609375 39.95691377 23.49609375 41.09765625 C19.86609375 41.09765625 16.23609375 41.09765625 12.49609375 41.09765625 C11.83609375 39.11765625 11.17609375 37.13765625 10.49609375 35.09765625 C5.21609375 34.76765625 -0.06390625 34.43765625 -5.50390625 34.09765625 C-5.83390625 36.07765625 -6.16390625 38.05765625 -6.50390625 40.09765625 C-7.50390625 41.09765625 -7.50390625 41.09765625 -9.7890625 41.1953125 C-12.36067708 41.16276042 -14.93229167 41.13020833 -17.50390625 41.09765625 C-15.27299669 33.11603678 -12.49877218 25.35059979 -9.6328125 17.58081055 C-8.86934724 15.50921876 -8.11215696 13.4354037 -7.35546875 11.36132812 C-6.87146155 10.04283368 -6.38710002 8.72446923 -5.90234375 7.40625 C-5.24758057 5.62432251 -5.24758057 5.62432251 -4.57958984 3.80639648 C-3.11627488 0.12153958 -3.11627488 0.12153958 0 0 Z " fill="#271F41" transform="translate(280.50390625,132.90234375)"/>
<path d="M0 0 C23.92756539 0 23.92756539 0 29.9765625 5.94140625 C31.90227529 9.81488197 31.4919347 13.79122531 31 18 C29.68740118 21.42734135 28.48868942 22.63661556 25.5625 24.8125 C20.29177415 26.56940862 15.54267617 26.18475587 10 26 C10 30.95 10 35.9 10 41 C6.7 41 3.4 41 0 41 C0 27.47 0 13.94 0 0 Z " fill="#282042" transform="translate(227,133)"/>
<path d="M0 0 C3.3 0 6.6 0 10 0 C10.33 5.61 10.66 11.22 11 17 C11.85464844 15.85660156 12.70929688 14.71320313 13.58984375 13.53515625 C14.70568718 12.0442394 15.82157488 10.5533557 16.9375 9.0625 C17.50146484 8.30775391 18.06542969 7.55300781 18.64648438 6.77539062 C19.18466797 6.05673828 19.72285156 5.33808594 20.27734375 4.59765625 C20.77484131 3.93258057 21.27233887 3.26750488 21.78491211 2.58227539 C23 1 23 1 24 0 C25.85287502 -0.07226502 27.70833878 -0.0838122 29.5625 -0.0625 C30.57441406 -0.05347656 31.58632813 -0.04445312 32.62890625 -0.03515625 C33.41136719 -0.02355469 34.19382812 -0.01195312 35 0 C33.66895994 2.86090769 32.16444643 5.22259802 30.1796875 7.671875 C29.37724609 8.66767578 29.37724609 8.66767578 28.55859375 9.68359375 C28.00300781 10.36550781 27.44742187 11.04742187 26.875 11.75 C26.31167969 12.44738281 25.74835938 13.14476562 25.16796875 13.86328125 C23.78192264 15.57821965 22.39252792 17.290324 21 19 C22.57635802 24.33859916 26.11032274 28.07444325 29.625 32.25 C30.82754361 33.69102272 32.02817699 35.13364247 33.2265625 36.578125 C33.75846191 37.21137695 34.29036133 37.84462891 34.83837891 38.49707031 C36 40 36 40 36 41 C25.73505399 42.21358968 25.73505399 42.21358968 21.85546875 39.5 C20.05599936 37.42025208 18.52073912 35.29078259 17 33 C15.85934286 31.49606007 14.71376115 29.99583816 13.5625 28.5 C12.2940625 26.7675 12.2940625 26.7675 11 25 C10.67 30.28 10.34 35.56 10 41 C6.7 41 3.4 41 0 41 C0 27.47 0 13.94 0 0 Z " fill="#282142" transform="translate(350,133)"/>
<path d="M0 0 C2.9564171 1.72457664 4.47874987 2.70749973 6 5.75 C6.04202422 7.41613677 6.04673629 9.08398875 6 10.75 C4.37581255 10.83090971 2.75048255 10.88914995 1.125 10.9375 C0.22007812 10.97230469 -0.68484375 11.00710937 -1.6171875 11.04296875 C-2.79667969 10.89794922 -2.79667969 10.89794922 -4 10.75 C-4.66 9.76 -5.32 8.77 -6 7.75 C-9.08365871 7.4997843 -9.08365871 7.4997843 -12 7.75 C-12.03617694 10.17141436 -12.03617694 10.17141436 -11 12.75 C-8.67453919 14.00147697 -6.65303924 14.89759246 -4.1875 15.75 C0.78962617 17.50243747 4.11692155 19.12565635 7 23.75 C7.62819266 28.7755413 7.03320735 31.70572354 4 35.75 C1.33710408 38.85671191 -0.79534869 39.65189088 -4.92578125 39.98828125 C-15.19814552 40.2133965 -15.19814552 40.2133965 -18.6875 38 C-20.84664756 35.89920777 -22.10842519 34.60303938 -23 31.75 C-23 30.43 -23 29.11 -23 27.75 C-21.37581255 27.66909029 -19.75048255 27.61085005 -18.125 27.5625 C-17.22007812 27.52769531 -16.31515625 27.49289063 -15.3828125 27.45703125 C-14.20332031 27.60205078 -14.20332031 27.60205078 -13 27.75 C-12.34 28.74 -11.68 29.73 -11 30.75 C-7.91634129 31.0002157 -7.91634129 31.0002157 -5 30.75 C-4.67 29.43 -4.34 28.11 -4 26.75 C-4.87011719 26.36908203 -4.87011719 26.36908203 -5.7578125 25.98046875 C-20.51401869 19.47897196 -20.51401869 19.47897196 -23 15.75 C-23.80853314 10.88230047 -23.75876996 7.0507485 -21.25 2.75 C-15.35219917 -2.49248963 -7.27901918 -2.84021431 0 0 Z " fill="#251D40" transform="translate(212,134.25)"/>
<path d="M0 0 C2.9564171 1.72457664 4.47874987 2.70749973 6 5.75 C6.04202422 7.41613677 6.04673629 9.08398875 6 10.75 C4.37581255 10.83090971 2.75048255 10.88914995 1.125 10.9375 C0.22007812 10.97230469 -0.68484375 11.00710937 -1.6171875 11.04296875 C-2.79667969 10.89794922 -2.79667969 10.89794922 -4 10.75 C-4.66 9.76 -5.32 8.77 -6 7.75 C-9.08365871 7.4997843 -9.08365871 7.4997843 -12 7.75 C-12.03617694 10.17141436 -12.03617694 10.17141436 -11 12.75 C-8.67453919 14.00147697 -6.65303924 14.89759246 -4.1875 15.75 C0.78962617 17.50243747 4.11692155 19.12565635 7 23.75 C7.62819266 28.7755413 7.03320735 31.70572354 4 35.75 C1.33710408 38.85671191 -0.79534869 39.65189088 -4.92578125 39.98828125 C-15.19814552 40.2133965 -15.19814552 40.2133965 -18.6875 38 C-20.84664756 35.89920777 -22.10842519 34.60303938 -23 31.75 C-23 30.43 -23 29.11 -23 27.75 C-21.37581255 27.66909029 -19.75048255 27.61085005 -18.125 27.5625 C-17.22007812 27.52769531 -16.31515625 27.49289063 -15.3828125 27.45703125 C-14.20332031 27.60205078 -14.20332031 27.60205078 -13 27.75 C-12.34 28.74 -11.68 29.73 -11 30.75 C-7.91634129 31.0002157 -7.91634129 31.0002157 -5 30.75 C-4.67 29.43 -4.34 28.11 -4 26.75 C-4.87011719 26.36908203 -4.87011719 26.36908203 -5.7578125 25.98046875 C-20.51401869 19.47897196 -20.51401869 19.47897196 -23 15.75 C-23.80853314 10.88230047 -23.75876996 7.0507485 -21.25 2.75 C-15.35219917 -2.49248963 -7.27901918 -2.84021431 0 0 Z " fill="#251D40" transform="translate(278,53.25)"/>
<path d="M0 0 C8.25 0 16.5 0 25 0 C25 2.64 25 5.28 25 8 C20.05 8 15.1 8 10 8 C10 10.97 10 13.94 10 17 C14.29 17 18.58 17 23 17 C23 19.31 23 21.62 23 24 C18.71 24 14.42 24 10 24 C10 26.97 10 29.94 10 33 C14.95 33 19.9 33 25 33 C25 35.64 25 38.28 25 41 C16.75 41 8.5 41 0 41 C0 27.47 0 13.94 0 0 Z " fill="#241C3F" transform="translate(222,52)"/>
<path d="M0 0 C3.3 0 6.6 0 10 0 C10 13.53 10 27.06 10 41 C6.7 41 3.4 41 0 41 C0 27.47 0 13.94 0 0 Z " fill="#292243" transform="translate(293,52)"/>
<path d="M0 0 C10 0 10 0 13.0625 2.4375 C13.701875 3.283125 14.34125 4.12875 15 5 C15.33 5.33 15.66 5.66 16 6 C16.4439141 10.60987716 16.55777742 14.72508019 14.6875 19 C13 21 13 21 10 23 C6.7 23 3.4 23 0 23 C0 15.41 0 7.82 0 0 Z " fill="#FBFBFC" transform="translate(188,61)"/>
<path d="M0 0 C7.23809524 -0.36190476 7.23809524 -0.36190476 10.5 1.1875 C12 3 12 3 12.4375 5.5 C11.91986863 8.45789355 11.35154142 9.19472373 9 11 C6.73828125 11.29296875 6.73828125 11.29296875 4.3125 11.1875 C2.889375 11.125625 1.46625 11.06375 0 11 C0 7.37 0 3.74 0 0 Z " fill="#E7E6EA" transform="translate(320,141)"/>
<path d="M0 0 C1.258125 -0.04125 2.51625 -0.0825 3.8125 -0.125 C4.52019531 -0.14820313 5.22789062 -0.17140625 5.95703125 -0.1953125 C8 0 8 0 11 2 C11.39191116 5.06997072 11.47271848 7.11365285 10 9.875 C6.74686316 11.70488947 3.68609891 11.18128355 0 11 C0 7.37 0 3.74 0 0 Z " fill="#E9E9EC" transform="translate(237,141)"/>
<path d="M0 0 C2.18614424 2.18614424 2.68256535 3.53879949 3.625 6.4375 C3.88539063 7.21996094 4.14578125 8.00242188 4.4140625 8.80859375 C5 11 5 11 5 14 C2.03 14 -0.94 14 -4 14 C-3.46148032 8.72250715 -2.22656164 4.74354436 0 0 Z " fill="#EBEAED" transform="translate(283,145)"/>
</svg>
